0
SECTION
2
HEADER
9
$INSUNITS
70
4
9
$ACADVER
1
AC1014
9
$HANDSEED
5
FFFF
0
ENDSEC
0
SECTION
2
TABLES
0
TABLE
2
VPORT
5
8
100
AcDbSymbolTable
0
ENDTAB
0
TABLE
2
LTYPE
5
5
100
AcDbSymbolTable
0
LTYPE
5
14
100
AcDbSymbolTableRecord
100
AcDbLinetypeTableRecord
2
BYBLOCK
70
0
0
LTYPE
5
15
100
AcDbSymbolTableRecord
100
AcDbLinetypeTableRecord
2
BYLAYER
70
0
0
ENDTAB
0
TABLE
2
LAYER
5
2
100
AcDbSymbolTable
70
2
0
LAYER
5
50
100
AcDbSymbolTableRecord
100
AcDbLayerTableRecord
2
0
70
0
6
CONTINUOUS
0
ENDTAB
0
TABLE
2
STYLE
5
3
100
AcDbSymbolTable
70
1
0
STYLE
5
11
100
AcDbSymbolTableRecord
100
AcDbTextStyleTableRecord
2
STANDARD
70
0
0
ENDTAB
0
TABLE
2
VIEW
5
6
100
AcDbSymbolTable
70
0
0
ENDTAB
0
TABLE
2
UCS
5
7
100
AcDbSymbolTable
70
0
0
ENDTAB
0
TABLE
2
APPID
5
9
100
AcDbSymbolTable
70
2
0
APPID
5
12
100
AcDbSymbolTableRecord
100
AcDbRegAppTableRecord
2
ACAD
70
0
0
ENDTAB
0
TABLE
2
DIMSTYLE
5
A
100
AcDbSymbolTable
70
1
0
ENDTAB
0
TABLE
2
BLOCK_RECORD
5
1
100
AcDbSymbolTable
70
1
0
BLOCK_RECORD
5
1F
100
AcDbSymbolTableRecord
100
AcDbBlockTableRecord
2
*MODEL_SPACE
0
BLOCK_RECORD
5
1B
100
AcDbSymbolTableRecord
100
AcDbBlockTableRecord
2
*PAPER_SPACE
0
ENDTAB
0
ENDSEC
0
SECTION
2
BLOCKS
0
BLOCK
5
20
100
AcDbEntity
100
AcDbBlockBegin
2
*MODEL_SPACE
0
ENDBLK
5
21
100
AcDbEntity
100
AcDbBlockEnd
0
BLOCK
5
1C
100
AcDbEntity
100
AcDbBlockBegin
2
*PAPER_SPACE
0
ENDBLK
5
1D
100
AcDbEntity
100
AcDbBlockEnd
0
ENDSEC
0
SECTION
2
ENTITIES
0
LWPOLYLINE
5
100
100
AcDbEntity
8
0
100
AcDbPolyline
90
4
70
1
43
0.0
10
26.813000000000002
20
59.300000000000004
42
-0.99999999999999989
10
26.813000000000002
20
60.300000000000004
10
28.812999999999999
20
60.300000000000004
42
-0.99999999999999989
10
28.812999999999999
20
59.300000000000004
0
LWPOLYLINE
5
101
100
AcDbEntity
8
0
100
AcDbPolyline
90
4
70
1
43
0.0
10
74.700000000000003
20
61.330999999999989
10
74.700000000000003
20
63.331000000000003
42
-0.99999999999999989
10
75.700000000000003
20
63.331000000000003
10
75.700000000000003
20
61.330999999999989
42
-0.99999999999999989
0
CIRCLE
5
102
100
AcDbEntity
8
0
100
AcDbCircle
10
73.200000000000003
20
65.831000000000003
30
0
40
0.75000000000000011
210
0
220
-0
230
1
0
CIRCLE
5
103
100
AcDbEntity
8
0
100
AcDbCircle
10
48.33100000000001
20
61.799999999999997
30
0
40
0.75000000000000011
210
0
220
0
230
1
0
LWPOLYLINE
5
104
100
AcDbEntity
8
0
100
AcDbPolyline
90
4
70
1
43
0.0
10
28.312999999999995
20
52.5
42
-0.99999999999999989
10
27.313000000000002
20
52.5
10
27.313000000000002
20
54.5
42
-0.99999999999999989
10
28.312999999999995
20
54.5
0
LWPOLYLINE
5
105
100
AcDbEntity
8
0
100
AcDbPolyline
90
4
70
1
43
0.0
10
45.331000000000003
20
19.5
10
45.331000000000003
20
17.5
42
-0.99999999999999989
10
44.331000000000003
20
17.5
10
44.331000000000003
20
19.5
42
-0.99999999999999989
0
ARC
5
106
100
AcDbEntity
8
0
100
AcDbCircle
10
3.0000000000000004
20
73
30
0
40
3.0000000000000004
210
0
220
0
230
1
100
AcDbArc
50
180
51
270
0
CIRCLE
5
107
100
AcDbEntity
8
0
100
AcDbCircle
10
3.5000000000000004
20
3.5000000000000004
30
0
40
1.375
210
0
220
0
230
1
0
ARC
5
108
100
AcDbEntity
8
0
100
AcDbCircle
10
3.0000000000000004
20
3.0000000000000004
30
0
40
3.0000000000000004
210
0
220
0
230
1
100
AcDbArc
50
180
51
270
0
LWPOLYLINE
5
109
100
AcDbEntity
8
0
100
AcDbPolyline
90
4
70
1
43
0.0
10
26.813000000000002
20
24.300000000000004
42
-0.99999999999999989
10
26.813000000000002
20
25.300000000000004
10
28.812999999999999
20
25.300000000000004
42
-0.99999999999999989
10
28.812999999999999
20
24.300000000000004
0
LWPOLYLINE
5
110
100
AcDbEntity
8
0
100
AcDbPolyline
90
4
70
1
43
0.0
10
28.312999999999995
20
17.5
42
-0.99999999999999989
10
27.313000000000002
20
17.5
10
27.313000000000002
20
19.5
42
-0.99999999999999989
10
28.312999999999995
20
19.5
0
LINE
5
111
100
AcDbEntity
8
0
100
AcDbLine
10
97.000000000000014
20
82.499999999999986
30
0
11
73
21
82.499999999999986
31
0
0
LWPOLYLINE
5
112
100
AcDbEntity
8
0
100
AcDbPolyline
90
4
70
1
43
0.0
10
80.5
20
62.830999999999975
10
82.5
20
62.830999999999989
42
-0.99999999999999989
10
82.5
20
61.830999999999975
10
80.5
20
61.830999999999996
42
-0.99999999999999989
0
ARC
5
113
100
AcDbEntity
8
0
100
AcDbCircle
10
3.0000000000000004
20
27
30
0
40
2.9999999999999982
210
0
220
-0
230
1
100
AcDbArc
50
90
51
180
0
LWPOLYLINE
5
114
100
AcDbEntity
8
0
100
AcDbPolyline
90
4
70
1
43
0.0
10
74.699999999999989
20
46.312999999999974
42
-0.99999999999999989
10
75.700000000000003
20
46.312999999999974
10
75.699999999999989
20
44.312999999999988
42
-0.99999999999999989
10
74.700000000000003
20
44.312999999999988
0
CIRCLE
5
115
100
AcDbEntity
8
0
100
AcDbCircle
10
73.200000000000003
20
48.812999999999974
30
0
40
0.75000000000000011
210
0
220
-0
230
1
0
LWPOLYLINE
5
116
100
AcDbEntity
8
0
100
AcDbPolyline
90
4
70
1
43
0.0
10
45.83100000000001
20
25.300000000000004
42
-0.99999999999999989
10
45.83100000000001
20
24.300000000000004
10
43.831000000000003
20
24.300000000000004
42
-0.99999999999999989
10
43.831000000000003
20
25.300000000000004
0
LWPOLYLINE
5
117
100
AcDbEntity
8
0
100
AcDbPolyline
90
4
70
1
43
0.0
10
80.5
20
44.812999999999981
42
-0.99999999999999989
10
80.5
20
45.812999999999981
10
82.5
20
45.812999999999981
42
-0.99999999999999989
10
82.5
20
44.812999999999981
0
ARC
5
118
100
AcDbEntity
8
0
100
AcDbCircle
10
62
20
27
30
0
40
2.9999999999999982
210
0
220
0
230
1
100
AcDbArc
50
0
51
90
0
LINE
5
119
100
AcDbEntity
8
0
100
AcDbLine
10
0
20
3.0000000000000009
30
0
11
0
21
27
31
0
0
CIRCLE
5
120
100
AcDbEntity
8
0
100
AcDbCircle
10
73.200000000000003
20
41.812999999999988
30
0
40
0.75000000000000011
210
0
220
-0
230
1
0
ARC
5
121
100
AcDbEntity
8
0
100
AcDbCircle
10
75.199999999999989
20
46.312999999999974
30
0
40
0.50000000000000711
210
-0
220
0
230
1
100
AcDbArc
50
0
51
180
0
LWPOLYLINE
5
122
100
AcDbEntity
8
0
100
AcDbPolyline
90
4
70
1
43
0.0
10
43.831000000000003
20
94.299999999999997
10
45.83100000000001
20
94.299999999999997
42
0.99999999999999989
10
45.83100000000001
20
95.300000000000011
10
43.831000000000003
20
95.300000000000011
42
0.99999999999999989
0
LWPOLYLINE
5
123
100
AcDbEntity
8
0
100
AcDbPolyline
90
4
70
1
43
0.0
10
45.83100000000001
20
25.300000000000004
42
-0.99999999999999989
10
45.83100000000001
20
24.300000000000004
10
43.831000000000003
20
24.300000000000004
42
-0.99999999999999989
10
43.831000000000003
20
25.300000000000004
0
LINE
5
124
100
AcDbEntity
8
0
100
AcDbLine
10
65
20
3.0000000000000004
30
0
11
65
21
27
31
0
0
CIRCLE
5
125
100
AcDbEntity
8
0
100
AcDbCircle
10
24.313000000000002
20
61.799999999999997
30
0
40
0.75000000000000011
210
0
220
0
230
1
0
LINE
5
126
100
AcDbEntity
8
0
100
AcDbLine
10
62
20
100
30
0
11
3.0000000000000004
21
100
31
0
0
CIRCLE
5
127
100
AcDbEntity
8
0
100
AcDbCircle
10
48.33100000000001
20
26.800000000000001
30
0
40
0.75000000000000011
210
0
220
0
230
1
0
LINE
5
128
100
AcDbEntity
8
0
100
AcDbLine
10
0
20
3.0000000000000009
30
0
11
0
21
27
31
0
0
CIRCLE
5
129
100
AcDbEntity
8
0
100
AcDbCircle
10
3.5000000000000004
20
73.5
30
0
40
1.375
210
0
220
0
230
1
0
CIRCLE
5
130
100
AcDbEntity
8
0
100
AcDbCircle
10
41.331000000000003
20
96.799999999999997
30
0
40
0.75000000000000011
210
0
220
0
230
1
0
LWPOLYLINE
5
131
100
AcDbEntity
8
0
100
AcDbPolyline
90
4
70
1
43
0.0
10
28.312999999999995
20
19.5
10
28.312999999999995
20
17.5
42
-0.99999999999999989
10
27.313000000000002
20
17.5
10
27.313000000000002
20
19.5
42
-0.99999999999999989
0
ARC
5
132
100
AcDbEntity
8
0
100
AcDbCircle
10
3.0000000000000004
20
27
30
0
40
2.9999999999999982
210
0
220
-0
230
1
100
AcDbArc
50
90
51
180
0
LINE
5
133
100
AcDbEntity
8
0
100
AcDbLine
10
3
20
0
30
0
11
62
21
0
31
0
0
ARC
5
134
100
AcDbEntity
8
0
100
AcDbCircle
10
97.000000000000014
20
79.499999999999972
30
0
40
3.0000000000000071
210
-0
220
0
230
1
100
AcDbArc
50
0
51
90
0
LWPOLYLINE
5
135
100
AcDbEntity
8
0
100
AcDbPolyline
90
4
70
1
43
0.0
10
28.812999999999999
20
25.300000000000004
42
-0.99999999999999989
10
28.812999999999999
20
24.300000000000004
10
26.813000000000002
20
24.300000000000004
42
-0.99999999999999989
10
26.813000000000002
20
25.300000000000004
0
LWPOLYLINE
5
136
100
AcDbEntity
8
0
100
AcDbPolyline
90
4
70
1
43
0.0
10
26.813000000000002
20
95.300000000000011
10
28.812999999999999
20
95.300000000000011
42
-0.99999999999999989
10
28.812999999999999
20
94.299999999999997
10
26.813000000000002
20
94.299999999999997
42
-0.99999999999999989
0
LWPOLYLINE
5
137
100
AcDbEntity
8
0
100
AcDbPolyline
90
4
70
1
43
0.0
10
44.331000000000003
20
54.5
10
44.331000000000003
20
52.5
42
0.99999999999999989
10
45.331000000000003
20
52.5
10
45.331000000000003
20
54.5
42
0.99999999999999989
0
CIRCLE
5
138
100
AcDbEntity
8
0
100
AcDbCircle
10
3.5000000000000004
20
26.500000000000004
30
0
40
1.375
210
0
220
0
230
1
0
CIRCLE
5
139
100
AcDbEntity
8
0
100
AcDbCircle
10
61.5
20
26.500000000000004
30
0
40
1.375
210
0
220
0
230
1
0
CIRCLE
5
140
100
AcDbEntity
8
0
100
AcDbCircle
10
61.5
20
3.5000000000000004
30
0
40
1.375
210
0
220
0
230
1
0
CIRCLE
5
141
100
AcDbEntity
8
0
100
AcDbCircle
10
61.5
20
26.500000000000004
30
0
40
1.375
210
0
220
0
230
1
0
ARC
5
142
100
AcDbEntity
8
0
100
AcDbCircle
10
62
20
73
30
0
40
2.9999999999999982
210
0
220
0
230
1
100
AcDbArc
50
-90
51
0
0
ARC
5
143
100
AcDbEntity
8
0
100
AcDbCircle
10
28.812999999999999
20
59.800000000000004
30
0
40
0.49999999999999822
210
0
220
0
230
1
100
AcDbArc
50
-90
51
90
0
LWPOLYLINE
5
144
100
AcDbEntity
8
0
100
AcDbPolyline
90
4
70
1
43
0.0
10
28.312999999999995
20
89.5
10
28.312999999999995
20
87.5
42
-0.99999999999999989
10
27.313000000000002
20
87.5
10
27.313000000000002
20
89.5
42
-0.99999999999999989
0
ARC
5
145
100
AcDbEntity
8
0
100
AcDbCircle
10
73
20
20.499999999999986
30
0
40
2.9999999999999982
210
0
220
0
230
1
100
AcDbArc
50
180
51
270
0
CIRCLE
5
146
100
AcDbEntity
8
0
100
AcDbCircle
10
73.200000000000003
20
58.830999999999989
30
0
40
0.75000000000000011
210
0
220
-0
230
1
0
CIRCLE
5
147
100
AcDbEntity
8
0
100
AcDbCircle
10
48.33100000000001
20
26.800000000000001
30
0
40
0.75000000000000011
210
0
220
0
230
1
0
ARC
5
148
100
AcDbEntity
8
0
100
AcDbCircle
10
45.83100000000001
20
94.800000000000011
30
0
40
0.50000000000000711
210
0
220
0
230
1
100
AcDbArc
50
-90
51
90
0
LINE
5
149
100
AcDbEntity
8
0
100
AcDbLine
10
3
20
0
30
0
11
62
21
0
31
0
0
ARC
5
150
100
AcDbEntity
8
0
100
AcDbCircle
10
62
20
3.0000000000000004
30
0
40
3.0000000000000004
210
0
220
0
230
1
100
AcDbArc
50
-90
51
0
0
LINE
5
151
100
AcDbEntity
8
0
100
AcDbLine
10
0
20
73
30
0
11
0
21
97
31
0
0
CIRCLE
5
152
100
AcDbEntity
8
0
100
AcDbCircle
10
24.313000000000002
20
26.800000000000001
30
0
40
0.75000000000000011
210
0
220
0
230
1
0
CIRCLE
5
153
100
AcDbEntity
8
0
100
AcDbCircle
10
3.5000000000000004
20
96.5
30
0
40
1.375
210
0
220
0
230
1
0
CIRCLE
5
154
100
AcDbEntity
8
0
100
AcDbCircle
10
24.313000000000002
20
26.800000000000001
30
0
40
0.75000000000000011
210
0
220
0
230
1
0
CIRCLE
5
155
100
AcDbEntity
8
0
100
AcDbCircle
10
3.5000000000000004
20
61.5
30
0
40
1.375
210
0
220
0
230
1
0
CIRCLE
5
156
100
AcDbEntity
8
0
100
AcDbCircle
10
41.331000000000003
20
26.800000000000001
30
0
40
0.75000000000000011
210
0
220
0
230
1
0
LINE
5
157
100
AcDbEntity
8
0
100
AcDbLine
10
65
20
3.0000000000000004
30
0
11
65
21
27
31
0
0
CIRCLE
5
158
100
AcDbEntity
8
0
100
AcDbCircle
10
3.5000000000000004
20
3.5000000000000004
30
0
40
1.375
210
0
220
0
230
1
0
ARC
5
159
100
AcDbEntity
8
0
100
AcDbCircle
10
62
20
38
30
0
40
2.9999999999999982
210
0
220
0
230
1
100
AcDbArc
50
-90
51
0
0
CIRCLE
5
160
100
AcDbEntity
8
0
100
AcDbCircle
10
24.313000000000002
20
96.799999999999997
30
0
40
0.75000000000000011
210
0
220
0
230
1
0
CIRCLE
5
161
100
AcDbEntity
8
0
100
AcDbCircle
10
96.500000000000028
20
78.999999999999986
30
0
40
1.375
210
0
220
-0
230
1
0
LINE
5
162
100
AcDbEntity
8
0
100
AcDbLine
10
65
20
73
30
0
11
65
21
97
31
0
0
CIRCLE
5
163
100
AcDbEntity
8
0
100
AcDbCircle
10
61.5
20
61.5
30
0
40
1.375
210
0
220
0
230
1
0
CIRCLE
5
164
100
AcDbEntity
8
0
100
AcDbCircle
10
41.331000000000003
20
26.800000000000001
30
0
40
0.75000000000000011
210
0
220
0
230
1
0
LWPOLYLINE
5
165
100
AcDbEntity
8
0
100
AcDbPolyline
90
4
70
1
43
0.0
10
45.83100000000001
20
60.300000000000004
42
-0.99999999999999989
10
45.83100000000001
20
59.300000000000004
10
43.831000000000003
20
59.300000000000004
42
-0.99999999999999989
10
43.831000000000003
20
60.300000000000004
0
ARC
5
166
100
AcDbEntity
8
0
100
AcDbCircle
10
75.200000000000003
20
63.331000000000003
30
0
40
0.49999999999999822
210
-0
220
0
230
1
100
AcDbArc
50
0
51
180
0
ARC
5
167
100
AcDbEntity
8
0
100
AcDbCircle
10
45.83100000000001
20
24.800000000000004
30
0
40
0.49999999999999822
210
0
220
0
230
1
100
AcDbArc
50
-90
51
90
0
ARC
5
168
100
AcDbEntity
8
0
100
AcDbCircle
10
3.0000000000000004
20
97
30
0
40
3.0000000000000071
210
0
220
-0
230
1
100
AcDbArc
50
90
51
180
0
CIRCLE
5
169
100
AcDbEntity
8
0
100
AcDbCircle
10
73.5
20
20.999999999999982
30
0
40
1.375
210
0
220
-0
230
1
0
CIRCLE
5
170
100
AcDbEntity
8
0
100
AcDbCircle
10
96.5
20
20.999999999999979
30
0
40
1.375
210
0
220
-0
230
1
0
ARC
5
171
100
AcDbEntity
8
0
100
AcDbCircle
10
28.812999999999999
20
24.800000000000004
30
0
40
0.49999999999999822
210
0
220
0
230
1
100
AcDbArc
50
-90
51
90
0
LINE
5
172
100
AcDbEntity
8
0
100
AcDbLine
10
100
20
20.499999999999975
30
0
11
100.00000000000001
21
79.499999999999972
31
0
0
CIRCLE
5
173
100
AcDbEntity
8
0
100
AcDbCircle
10
61.5
20
38.5
30
0
40
1.375
210
0
220
0
230
1
0
CIRCLE
5
174
100
AcDbEntity
8
0
100
AcDbCircle
10
73.500000000000014
20
78.999999999999986
30
0
40
1.375
210
0
220
-0
230
1
0
LWPOLYLINE
5
175
100
AcDbEntity
8
0
100
AcDbPolyline
90
4
70
1
43
0.0
10
45.331000000000003
20
89.5
10
45.331000000000003
20
87.5
42
-0.99999999999999989
10
44.331000000000003
20
87.5
10
44.331000000000003
20
89.5
42
-0.99999999999999989
0
LWPOLYLINE
5
176
100
AcDbEntity
8
0
100
AcDbPolyline
90
4
70
1
43
0.0
10
44.331000000000003
20
19.5
10
44.331000000000003
20
17.5
42
0.99999999999999989
10
45.331000000000003
20
17.5
10
45.331000000000003
20
19.5
42
0.99999999999999989
0
CIRCLE
5
177
100
AcDbEntity
8
0
100
AcDbCircle
10
48.33100000000001
20
96.799999999999997
30
0
40
0.75000000000000011
210
0
220
0
230
1
0
LINE
5
178
100
AcDbEntity
8
0
100
AcDbLine
10
97
20
17.499999999999979
30
0
11
73
21
17.499999999999986
31
0
0
ARC
5
179
100
AcDbEntity
8
0
100
AcDbCircle
10
73
20
79.5
30
0
40
2.9999999999999893
210
0
220
-0
230
1
100
AcDbArc
50
90
51
180
0
CIRCLE
5
180
100
AcDbEntity
8
0
100
AcDbCircle
10
31.312999999999999
20
96.799999999999997
30
0
40
0.75000000000000011
210
0
220
0
230
1
0
CIRCLE
5
181
100
AcDbEntity
8
0
100
AcDbCircle
10
31.312999999999999
20
26.800000000000001
30
0
40
0.75000000000000011
210
0
220
0
230
1
0
ARC
5
182
100
AcDbEntity
8
0
100
AcDbCircle
10
62
20
97
30
0
40
2.9999999999999982
210
0
220
0
230
1
100
AcDbArc
50
0
51
90
0
CIRCLE
5
183
100
AcDbEntity
8
0
100
AcDbCircle
10
61.5
20
73.5
30
0
40
1.375
210
0
220
0
230
1
0
ARC
5
184
100
AcDbEntity
8
0
100
AcDbCircle
10
28.812999999999999
20
24.800000000000004
30
0
40
0.49999999999999822
210
0
220
0
230
1
100
AcDbArc
50
-90
51
90
0
ARC
5
185
100
AcDbEntity
8
0
100
AcDbCircle
10
45.83100000000001
20
59.800000000000004
30
0
40
0.49999999999999822
210
0
220
0
230
1
100
AcDbArc
50
-90
51
90
0
CIRCLE
5
186
100
AcDbEntity
8
0
100
AcDbCircle
10
3.5000000000000004
20
38.5
30
0
40
1.375
210
0
220
0
230
1
0
CIRCLE
5
187
100
AcDbEntity
8
0
100
AcDbCircle
10
41.331000000000003
20
61.799999999999997
30
0
40
0.75000000000000011
210
0
220
0
230
1
0
ARC
5
188
100
AcDbEntity
8
0
100
AcDbCircle
10
28.812999999999999
20
94.800000000000011
30
0
40
0.50000000000000711
210
0
220
0
230
1
100
AcDbArc
50
-90
51
90
0
CIRCLE
5
189
100
AcDbEntity
8
0
100
AcDbCircle
10
31.312999999999999
20
61.799999999999997
30
0
40
0.75000000000000011
210
0
220
0
230
1
0
CIRCLE
5
190
100
AcDbEntity
8
0
100
AcDbCircle
10
31.312999999999999
20
26.800000000000001
30
0
40
0.75000000000000011
210
0
220
0
230
1
0
LINE
5
191
100
AcDbEntity
8
0
100
AcDbLine
10
0
20
38
30
0
11
0
21
62
31
0
0
ARC
5
192
100
AcDbEntity
8
0
100
AcDbCircle
10
3.0000000000000004
20
3.0000000000000004
30
0
40
3.0000000000000004
210
0
220
0
230
1
100
AcDbArc
50
180
51
270
0
CIRCLE
5
193
100
AcDbEntity
8
0
100
AcDbCircle
10
61.5
20
96.5
30
0
40
1.375
210
0
220
0
230
1
0
ARC
5
194
100
AcDbEntity
8
0
100
AcDbCircle
10
62
20
3.0000000000000004
30
0
40
3.0000000000000004
210
0
220
0
230
1
100
AcDbArc
50
-90
51
0
0
CIRCLE
5
195
100
AcDbEntity
8
0
100
AcDbCircle
10
3.5000000000000004
20
26.500000000000004
30
0
40
1.375
210
0
220
0
230
1
0
CIRCLE
5
196
100
AcDbEntity
8
0
100
AcDbCircle
10
61.5
20
3.5000000000000004
30
0
40
1.375
210
0
220
0
230
1
0
ARC
5
197
100
AcDbEntity
8
0
100
AcDbCircle
10
62
20
62
30
0
40
2.9999999999999982
210
0
220
0
230
1
100
AcDbArc
50
0
51
90
0
ARC
5
198
100
AcDbEntity
8
0
100
AcDbCircle
10
3.0000000000000004
20
62
30
0
40
2.9999999999999982
210
0
220
-0
230
1
100
AcDbArc
50
90
51
180
0
ARC
5
199
100
AcDbEntity
8
0
100
AcDbCircle
10
97
20
20.499999999999979
30
0
40
3.0000000000000027
210
0
220
0
230
1
100
AcDbArc
50
270
51
360
0
ARC
5
200
100
AcDbEntity
8
0
100
AcDbCircle
10
3.0000000000000004
20
38
30
0
40
3.0000000000000004
210
0
220
0
230
1
100
AcDbArc
50
180
51
270
0
ARC
5
201
100
AcDbEntity
8
0
100
AcDbCircle
10
62
20
27
30
0
40
2.9999999999999982
210
0
220
0
230
1
100
AcDbArc
50
0
51
90
0
ARC
5
202
100
AcDbEntity
8
0
100
AcDbCircle
10
45.83100000000001
20
24.800000000000004
30
0
40
0.49999999999999822
210
0
220
0
230
1
100
AcDbArc
50
-90
51
90
0
LINE
5
203
100
AcDbEntity
8
0
100
AcDbLine
10
30.5
20
69
30
0
11
30.5
21
66
31
0
0
LINE
5
204
100
AcDbEntity
8
0
100
AcDbLine
10
34.5
20
69
30
0
11
34.5
21
66
31
0
0
LINE
5
205
100
AcDbEntity
8
0
100
AcDbLine
10
30.668733915780528
20
34
30
0
11
30.668733915780528
21
31
31
0
0
LINE
5
206
100
AcDbEntity
8
0
100
AcDbLine
10
34.668733915780528
20
31
30
0
11
34.668733915780528
21
34
31
0
0
LINE
5
207
100
AcDbEntity
8
0
100
AcDbLine
10
66
20
52
30
0
11
69.000000000000014
21
52
31
0
0
LINE
5
208
100
AcDbEntity
8
0
100
AcDbLine
10
66
20
48
30
0
11
69
21
48
31
0
0
LINE
5
209
100
AcDbEntity
8
0
100
AcDbLine
10
70.000000000000014
20
79.5
30
0
11
70.000000000000014
21
53
31
0
0
LINE
5
210
100
AcDbEntity
8
0
100
AcDbLine
10
70.000000000000014
20
47
30
0
11
70
21
20.499999999999986
31
0
0
LINE
5
211
100
AcDbEntity
8
0
100
AcDbLine
10
65
20
62
30
0
11
65
21
53
31
0
0
LINE
5
212
100
AcDbEntity
8
0
100
AcDbLine
10
65
20
47
30
0
11
65
21
38
31
0
0
LINE
5
213
100
AcDbEntity
8
0
100
AcDbLine
10
3
20
70
30
0
11
29.499999999999996
21
70
31
0
0
LINE
5
214
100
AcDbEntity
8
0
100
AcDbLine
10
35.5
20
70
30
0
11
62
21
70
31
0
0
LINE
5
215
100
AcDbEntity
8
0
100
AcDbLine
10
3.0000000000000004
20
65
30
0
11
29.499999999999993
21
65
31
0
0
LINE
5
216
100
AcDbEntity
8
0
100
AcDbLine
10
35.5
20
65
30
0
11
62
21
65
31
0
0
LINE
5
217
100
AcDbEntity
8
0
100
AcDbLine
10
29.668733915780528
20
35
30
0
11
3
21
35
31
0
0
LINE
5
218
100
AcDbEntity
8
0
100
AcDbLine
10
35.668733915780528
20
35.000000000000007
30
0
11
62
21
35
31
0
0
LINE
5
219
100
AcDbEntity
8
0
100
AcDbLine
10
3.0000000000000004
20
30
30
0
11
29.668733915780521
21
29.999999999999996
31
0
0
LINE
5
220
100
AcDbEntity
8
0
100
AcDbLine
10
35.668733915780528
20
29.999999999999996
30
0
11
62
21
30
31
0
0
ARC
5
221
100
AcDbEntity
8
0
100
AcDbCircle
10
29.500000000000007
20
69.000000000000014
30
0
40
0.99999999999999201
210
0
220
0
230
1
100
AcDbArc
50
0
51
90.000000000000611
0
ARC
5
222
100
AcDbEntity
8
0
100
AcDbCircle
10
35.499999999999993
20
69.000000000000014
30
0
40
0.99999999999998757
210
0
220
-0
230
1
100
AcDbArc
50
89.999999999999588
51
180
0
ARC
5
223
100
AcDbEntity
8
0
100
AcDbCircle
10
35.499999999999993
20
65.999999999999986
30
0
40
0.99999999999999201
210
0
220
0
230
1
100
AcDbArc
50
180
51
270.0000000000004
0
ARC
5
224
100
AcDbEntity
8
0
100
AcDbCircle
10
29.500000000000007
20
66
30
0
40
0.99999999999999645
210
0
220
0
230
1
100
AcDbArc
50
-90.00000000000081
51
0
0
ARC
5
225
100
AcDbEntity
8
0
100
AcDbCircle
10
66
20
53
30
0
40
0.99999999999999645
210
0
220
-0
230
1
100
AcDbArc
50
180
51
270
0
ARC
5
226
100
AcDbEntity
8
0
100
AcDbCircle
10
69.000000000000014
20
53
30
0
40
0.99999999999999645
210
0
220
0
230
1
100
AcDbArc
50
-90
51
0
0
ARC
5
227
100
AcDbEntity
8
0
100
AcDbCircle
10
69
20
46.999999999999986
30
0
40
1.0000000000000142
210
0
220
-0
230
1
100
AcDbArc
50
0
51
90
0
ARC
5
228
100
AcDbEntity
8
0
100
AcDbCircle
10
66
20
47
30
0
40
0.99999999999999645
210
0
220
-0
230
1
100
AcDbArc
50
90
51
180
0
ARC
5
229
100
AcDbEntity
8
0
100
AcDbCircle
10
35.668733915780535
20
33.999999999999993
30
0
40
1.0000000000000098
210
0
220
-0
230
1
100
AcDbArc
50
90.000000000000398
51
180
0
ARC
5
230
100
AcDbEntity
8
0
100
AcDbCircle
10
29.668733915780518
20
33.999999999999993
30
0
40
1.0000000000000098
210
0
220
-0
230
1
100
AcDbArc
50
0
51
89.999999999999389
0
ARC
5
231
100
AcDbEntity
8
0
100
AcDbCircle
10
29.668733915780514
20
31.000000000000011
30
0
40
1.0000000000000142
210
-0
220
0
230
1
100
AcDbArc
50
270.0000000000004
51
360
0
ARC
5
232
100
AcDbEntity
8
0
100
AcDbCircle
10
35.668733915780535
20
31.000000000000007
30
0
40
1.0000000000000098
210
0
220
0
230
1
100
AcDbArc
50
180
51
269.9999999999996
0
ENDSEC
0
SECTION
2
OBJECTS
0
DICTIONARY
5
C
100
AcDbDictionary
3
ACAD_GROUP
350
D
3
ACAD_MLINESTYLE
350
17
0
DICTIONARY
5
D
100
AcDbDictionary
0
DICTIONARY
5
1A
330
C
100
AcDbDictionary
0
DICTIONARY
5
17
100
AcDbDictionary
0
ENDSEC
0
EOF
