0
SECTION
2
HEADER
9
$INSUNITS
70
4
9
$ACADVER
1
AC1014
9
$HANDSEED
5
FFFF
0
ENDSEC
0
SECTION
2
TABLES
0
TABLE
2
VPORT
5
8
100
AcDbSymbolTable
0
ENDTAB
0
TABLE
2
LTYPE
5
5
100
AcDbSymbolTable
0
LTYPE
5
14
100
AcDbSymbolTableRecord
100
AcDbLinetypeTableRecord
2
BYBLOCK
70
0
0
LTYPE
5
15
100
AcDbSymbolTableRecord
100
AcDbLinetypeTableRecord
2
BYLAYER
70
0
0
ENDTAB
0
TABLE
2
LAYER
5
2
100
AcDbSymbolTable
70
2
0
LAYER
5
50
100
AcDbSymbolTableRecord
100
AcDbLayerTableRecord
2
0
70
0
6
CONTINUOUS
0
ENDTAB
0
TABLE
2
STYLE
5
3
100
AcDbSymbolTable
70
1
0
STYLE
5
11
100
AcDbSymbolTableRecord
100
AcDbTextStyleTableRecord
2
STANDARD
70
0
0
ENDTAB
0
TABLE
2
VIEW
5
6
100
AcDbSymbolTable
70
0
0
ENDTAB
0
TABLE
2
UCS
5
7
100
AcDbSymbolTable
70
0
0
ENDTAB
0
TABLE
2
APPID
5
9
100
AcDbSymbolTable
70
2
0
APPID
5
12
100
AcDbSymbolTableRecord
100
AcDbRegAppTableRecord
2
ACAD
70
0
0
ENDTAB
0
TABLE
2
DIMSTYLE
5
A
100
AcDbSymbolTable
70
1
0
ENDTAB
0
TABLE
2
BLOCK_RECORD
5
1
100
AcDbSymbolTable
70
1
0
BLOCK_RECORD
5
1F
100
AcDbSymbolTableRecord
100
AcDbBlockTableRecord
2
*MODEL_SPACE
0
BLOCK_RECORD
5
1B
100
AcDbSymbolTableRecord
100
AcDbBlockTableRecord
2
*PAPER_SPACE
0
ENDTAB
0
ENDSEC
0
SECTION
2
BLOCKS
0
BLOCK
5
20
100
AcDbEntity
100
AcDbBlockBegin
2
*MODEL_SPACE
0
ENDBLK
5
21
100
AcDbEntity
100
AcDbBlockEnd
0
BLOCK
5
1C
100
AcDbEntity
100
AcDbBlockBegin
2
*PAPER_SPACE
0
ENDBLK
5
1D
100
AcDbEntity
100
AcDbBlockEnd
0
ENDSEC
0
SECTION
2
ENTITIES
0
LWPOLYLINE
5
100
100
AcDbEntity
8
0
100
AcDbPolyline
90
4
70
1
43
0.0
10
26.813000000000002
20
58.300000000000011
42
-0.99999999999999989
10
26.813000000000002
20
59.300000000000004
10
28.812999999999999
20
59.300000000000004
42
-0.99999999999999989
10
28.812999999999999
20
58.300000000000011
0
LWPOLYLINE
5
101
100
AcDbEntity
8
0
100
AcDbPolyline
90
4
70
1
43
0.0
10
73.700000000000017
20
60.330999999999989
10
73.700000000000017
20
62.331000000000003
42
-0.99999999999999989
10
74.700000000000003
20
62.331000000000003
10
74.700000000000003
20
60.330999999999989
42
-0.99999999999999989
0
CIRCLE
5
102
100
AcDbEntity
8
0
100
AcDbCircle
10
72.200000000000003
20
64.831000000000003
30
0
40
0.75000000000000011
210
0
220
-0
230
1
0
CIRCLE
5
103
100
AcDbEntity
8
0
100
AcDbCircle
10
48.33100000000001
20
60.799999999999997
30
0
40
0.75000000000000011
210
0
220
0
230
1
0
LWPOLYLINE
5
104
100
AcDbEntity
8
0
100
AcDbPolyline
90
4
70
1
43
0.0
10
28.312999999999995
20
51.5
42
-0.99999999999999989
10
27.313000000000002
20
51.5
10
27.313000000000002
20
53.500000000000007
42
-0.99999999999999989
10
28.312999999999995
20
53.500000000000007
0
LWPOLYLINE
5
105
100
AcDbEntity
8
0
100
AcDbPolyline
90
4
70
1
43
0.0
10
45.331000000000003
20
19.5
10
45.331000000000003
20
17.5
42
-0.99999999999999989
10
44.331000000000003
20
17.5
10
44.331000000000003
20
19.5
42
-0.99999999999999989
0
ARC
5
106
100
AcDbEntity
8
0
100
AcDbCircle
10
3.0000000000000004
20
71
30
0
40
3.0000000000000004
210
0
220
0
230
1
100
AcDbArc
50
180
51
270
0
CIRCLE
5
107
100
AcDbEntity
8
0
100
AcDbCircle
10
3.5000000000000004
20
3.5000000000000004
30
0
40
1.375
210
0
220
0
230
1
0
ARC
5
108
100
AcDbEntity
8
0
100
AcDbCircle
10
3.0000000000000004
20
3.0000000000000004
30
0
40
3.0000000000000004
210
0
220
0
230
1
100
AcDbArc
50
180
51
270
0
LWPOLYLINE
5
109
100
AcDbEntity
8
0
100
AcDbPolyline
90
4
70
1
43
0.0
10
26.813000000000002
20
24.300000000000004
42
-0.99999999999999989
10
26.813000000000002
20
25.300000000000004
10
28.812999999999999
20
25.300000000000004
42
-0.99999999999999989
10
28.812999999999999
20
24.300000000000004
0
LWPOLYLINE
5
110
100
AcDbEntity
8
0
100
AcDbPolyline
90
4
70
1
43
0.0
10
28.312999999999995
20
17.5
42
-0.99999999999999989
10
27.313000000000002
20
17.5
10
27.313000000000002
20
19.5
42
-0.99999999999999989
10
28.312999999999995
20
19.5
0
LINE
5
111
100
AcDbEntity
8
0
100
AcDbLine
10
96.000000000000014
20
81.499999999999986
30
0
11
72.000000000000014
21
81.499999999999986
31
0
0
LWPOLYLINE
5
112
100
AcDbEntity
8
0
100
AcDbPolyline
90
4
70
1
43
0.0
10
79.500000000000014
20
61.830999999999975
10
81.5
20
61.830999999999996
42
-0.99999999999999989
10
81.5
20
60.830999999999982
10
79.500000000000014
20
60.831000000000003
42
-0.99999999999999989
0
ARC
5
113
100
AcDbEntity
8
0
100
AcDbCircle
10
3.0000000000000004
20
27
30
0
40
2.9999999999999982
210
0
220
-0
230
1
100
AcDbArc
50
90
51
180
0
LWPOLYLINE
5
114
100
AcDbEntity
8
0
100
AcDbPolyline
90
4
70
1
43
0.0
10
73.699999999999989
20
45.312999999999981
42
-0.99999999999999989
10
74.700000000000003
20
45.312999999999981
10
74.699999999999989
20
43.312999999999988
42
-0.99999999999999989
10
73.700000000000017
20
43.312999999999988
0
CIRCLE
5
115
100
AcDbEntity
8
0
100
AcDbCircle
10
72.200000000000003
20
47.812999999999981
30
0
40
0.75000000000000011
210
0
220
-0
230
1
0
LWPOLYLINE
5
116
100
AcDbEntity
8
0
100
AcDbPolyline
90
4
70
1
43
0.0
10
45.83100000000001
20
25.300000000000004
42
-0.99999999999999989
10
45.83100000000001
20
24.300000000000004
10
43.831000000000003
20
24.300000000000004
42
-0.99999999999999989
10
43.831000000000003
20
25.300000000000004
0
LWPOLYLINE
5
117
100
AcDbEntity
8
0
100
AcDbPolyline
90
4
70
1
43
0.0
10
79.500000000000014
20
43.812999999999988
42
-0.99999999999999989
10
79.500000000000014
20
44.812999999999981
10
81.5
20
44.812999999999981
42
-0.99999999999999989
10
81.5
20
43.812999999999988
0
ARC
5
118
100
AcDbEntity
8
0
100
AcDbCircle
10
62
20
27
30
0
40
2.9999999999999982
210
0
220
0
230
1
100
AcDbArc
50
0
51
90
0
LINE
5
119
100
AcDbEntity
8
0
100
AcDbLine
10
0
20
3.0000000000000009
30
0
11
0
21
27
31
0
0
CIRCLE
5
120
100
AcDbEntity
8
0
100
AcDbCircle
10
72.200000000000003
20
40.812999999999988
30
0
40
0.75000000000000011
210
0
220
-0
230
1
0
ARC
5
121
100
AcDbEntity
8
0
100
AcDbCircle
10
74.200000000000003
20
45.312999999999981
30
0
40
0.50000000000000711
210
-0
220
0
230
1
100
AcDbArc
50
0
51
180
0
LWPOLYLINE
5
122
100
AcDbEntity
8
0
100
AcDbPolyline
90
4
70
1
43
0.0
10
43.831000000000003
20
92.300000000000011
10
45.83100000000001
20
92.300000000000011
42
0.99999999999999989
10
45.83100000000001
20
93.300000000000011
10
43.831000000000003
20
93.300000000000011
42
0.99999999999999989
0
LWPOLYLINE
5
123
100
AcDbEntity
8
0
100
AcDbPolyline
90
4
70
1
43
0.0
10
45.83100000000001
20
25.300000000000004
42
-0.99999999999999989
10
45.83100000000001
20
24.300000000000004
10
43.831000000000003
20
24.300000000000004
42
-0.99999999999999989
10
43.831000000000003
20
25.300000000000004
0
LINE
5
124
100
AcDbEntity
8
0
100
AcDbLine
10
65
20
3.0000000000000004
30
0
11
65
21
27
31
0
0
CIRCLE
5
125
100
AcDbEntity
8
0
100
AcDbCircle
10
24.313000000000002
20
60.799999999999997
30
0
40
0.75000000000000011
210
0
220
0
230
1
0
LINE
5
126
100
AcDbEntity
8
0
100
AcDbLine
10
62
20
98
30
0
11
3.0000000000000004
21
98
31
0
0
CIRCLE
5
127
100
AcDbEntity
8
0
100
AcDbCircle
10
48.33100000000001
20
26.800000000000001
30
0
40
0.75000000000000011
210
0
220
0
230
1
0
LINE
5
128
100
AcDbEntity
8
0
100
AcDbLine
10
0
20
3.0000000000000009
30
0
11
0
21
27
31
0
0
CIRCLE
5
129
100
AcDbEntity
8
0
100
AcDbCircle
10
3.5000000000000004
20
71.5
30
0
40
1.375
210
0
220
0
230
1
0
CIRCLE
5
130
100
AcDbEntity
8
0
100
AcDbCircle
10
41.331000000000003
20
94.800000000000011
30
0
40
0.75000000000000011
210
0
220
0
230
1
0
LWPOLYLINE
5
131
100
AcDbEntity
8
0
100
AcDbPolyline
90
4
70
1
43
0.0
10
28.312999999999995
20
19.5
10
28.312999999999995
20
17.5
42
-0.99999999999999989
10
27.313000000000002
20
17.5
10
27.313000000000002
20
19.5
42
-0.99999999999999989
0
ARC
5
132
100
AcDbEntity
8
0
100
AcDbCircle
10
3.0000000000000004
20
27
30
0
40
2.9999999999999982
210
0
220
-0
230
1
100
AcDbArc
50
90
51
180
0
LINE
5
133
100
AcDbEntity
8
0
100
AcDbLine
10
3
20
0
30
0
11
62
21
0
31
0
0
ARC
5
134
100
AcDbEntity
8
0
100
AcDbCircle
10
96.000000000000014
20
78.499999999999972
30
0
40
3.0000000000000071
210
-0
220
0
230
1
100
AcDbArc
50
0
51
90
0
LWPOLYLINE
5
135
100
AcDbEntity
8
0
100
AcDbPolyline
90
4
70
1
43
0.0
10
28.812999999999999
20
25.300000000000004
42
-0.99999999999999989
10
28.812999999999999
20
24.300000000000004
10
26.813000000000002
20
24.300000000000004
42
-0.99999999999999989
10
26.813000000000002
20
25.300000000000004
0
LWPOLYLINE
5
136
100
AcDbEntity
8
0
100
AcDbPolyline
90
4
70
1
43
0.0
10
26.813000000000002
20
93.300000000000011
10
28.812999999999999
20
93.300000000000011
42
-0.99999999999999989
10
28.812999999999999
20
92.300000000000011
10
26.813000000000002
20
92.300000000000011
42
-0.99999999999999989
0
LWPOLYLINE
5
137
100
AcDbEntity
8
0
100
AcDbPolyline
90
4
70
1
43
0.0
10
44.331000000000003
20
53.500000000000007
10
44.331000000000003
20
51.5
42
0.99999999999999989
10
45.331000000000003
20
51.5
10
45.331000000000003
20
53.500000000000007
42
0.99999999999999989
0
CIRCLE
5
138
100
AcDbEntity
8
0
100
AcDbCircle
10
3.5000000000000004
20
26.500000000000004
30
0
40
1.375
210
0
220
0
230
1
0
CIRCLE
5
139
100
AcDbEntity
8
0
100
AcDbCircle
10
61.5
20
26.500000000000004
30
0
40
1.375
210
0
220
0
230
1
0
CIRCLE
5
140
100
AcDbEntity
8
0
100
AcDbCircle
10
61.5
20
3.5000000000000004
30
0
40
1.375
210
0
220
0
230
1
0
CIRCLE
5
141
100
AcDbEntity
8
0
100
AcDbCircle
10
61.5
20
26.500000000000004
30
0
40
1.375
210
0
220
0
230
1
0
ARC
5
142
100
AcDbEntity
8
0
100
AcDbCircle
10
62
20
71
30
0
40
2.9999999999999982
210
0
220
0
230
1
100
AcDbArc
50
-90
51
0
0
ARC
5
143
100
AcDbEntity
8
0
100
AcDbCircle
10
28.812999999999999
20
58.800000000000011
30
0
40
0.49999999999999822
210
0
220
0
230
1
100
AcDbArc
50
-90
51
90
0
LWPOLYLINE
5
144
100
AcDbEntity
8
0
100
AcDbPolyline
90
4
70
1
43
0.0
10
28.312999999999995
20
87.5
10
28.312999999999995
20
85.5
42
-0.99999999999999989
10
27.313000000000002
20
85.5
10
27.313000000000002
20
87.5
42
-0.99999999999999989
0
ARC
5
145
100
AcDbEntity
8
0
100
AcDbCircle
10
72
20
19.499999999999989
30
0
40
2.9999999999999982
210
0
220
0
230
1
100
AcDbArc
50
180
51
270
0
CIRCLE
5
146
100
AcDbEntity
8
0
100
AcDbCircle
10
72.200000000000003
20
57.830999999999989
30
0
40
0.75000000000000011
210
0
220
-0
230
1
0
CIRCLE
5
147
100
AcDbEntity
8
0
100
AcDbCircle
10
48.33100000000001
20
26.800000000000001
30
0
40
0.75000000000000011
210
0
220
0
230
1
0
ARC
5
148
100
AcDbEntity
8
0
100
AcDbCircle
10
45.83100000000001
20
92.800000000000011
30
0
40
0.50000000000000711
210
0
220
0
230
1
100
AcDbArc
50
-90
51
90
0
LINE
5
149
100
AcDbEntity
8
0
100
AcDbLine
10
3
20
0
30
0
11
62
21
0
31
0
0
ARC
5
150
100
AcDbEntity
8
0
100
AcDbCircle
10
62
20
3.0000000000000004
30
0
40
3.0000000000000004
210
0
220
0
230
1
100
AcDbArc
50
-90
51
0
0
LINE
5
151
100
AcDbEntity
8
0
100
AcDbLine
10
0
20
71
30
0
11
0
21
95
31
0
0
CIRCLE
5
152
100
AcDbEntity
8
0
100
AcDbCircle
10
24.313000000000002
20
26.800000000000001
30
0
40
0.75000000000000011
210
0
220
0
230
1
0
CIRCLE
5
153
100
AcDbEntity
8
0
100
AcDbCircle
10
3.5000000000000004
20
94.500000000000014
30
0
40
1.375
210
0
220
0
230
1
0
CIRCLE
5
154
100
AcDbEntity
8
0
100
AcDbCircle
10
24.313000000000002
20
26.800000000000001
30
0
40
0.75000000000000011
210
0
220
0
230
1
0
CIRCLE
5
155
100
AcDbEntity
8
0
100
AcDbCircle
10
3.5000000000000004
20
60.500000000000007
30
0
40
1.375
210
0
220
0
230
1
0
CIRCLE
5
156
100
AcDbEntity
8
0
100
AcDbCircle
10
41.331000000000003
20
26.800000000000001
30
0
40
0.75000000000000011
210
0
220
0
230
1
0
LINE
5
157
100
AcDbEntity
8
0
100
AcDbLine
10
65
20
3.0000000000000004
30
0
11
65
21
27
31
0
0
CIRCLE
5
158
100
AcDbEntity
8
0
100
AcDbCircle
10
3.5000000000000004
20
3.5000000000000004
30
0
40
1.375
210
0
220
0
230
1
0
ARC
5
159
100
AcDbEntity
8
0
100
AcDbCircle
10
62
20
37
30
0
40
2.9999999999999982
210
0
220
0
230
1
100
AcDbArc
50
-90
51
0
0
CIRCLE
5
160
100
AcDbEntity
8
0
100
AcDbCircle
10
24.313000000000002
20
94.800000000000011
30
0
40
0.75000000000000011
210
0
220
0
230
1
0
CIRCLE
5
161
100
AcDbEntity
8
0
100
AcDbCircle
10
95.500000000000028
20
77.999999999999986
30
0
40
1.375
210
0
220
-0
230
1
0
LINE
5
162
100
AcDbEntity
8
0
100
AcDbLine
10
65
20
71
30
0
11
65
21
95
31
0
0
CIRCLE
5
163
100
AcDbEntity
8
0
100
AcDbCircle
10
61.5
20
60.500000000000007
30
0
40
1.375
210
0
220
0
230
1
0
CIRCLE
5
164
100
AcDbEntity
8
0
100
AcDbCircle
10
41.331000000000003
20
26.800000000000001
30
0
40
0.75000000000000011
210
0
220
0
230
1
0
LWPOLYLINE
5
165
100
AcDbEntity
8
0
100
AcDbPolyline
90
4
70
1
43
0.0
10
45.83100000000001
20
59.300000000000004
42
-0.99999999999999989
10
45.83100000000001
20
58.300000000000011
10
43.831000000000003
20
58.300000000000011
42
-0.99999999999999989
10
43.831000000000003
20
59.300000000000004
0
ARC
5
166
100
AcDbEntity
8
0
100
AcDbCircle
10
74.200000000000003
20
62.331000000000003
30
0
40
0.49999999999999822
210
-0
220
0
230
1
100
AcDbArc
50
0
51
180
0
ARC
5
167
100
AcDbEntity
8
0
100
AcDbCircle
10
45.83100000000001
20
24.800000000000004
30
0
40
0.49999999999999822
210
0
220
0
230
1
100
AcDbArc
50
-90
51
90
0
ARC
5
168
100
AcDbEntity
8
0
100
AcDbCircle
10
3.0000000000000004
20
95
30
0
40
3.0000000000000071
210
0
220
-0
230
1
100
AcDbArc
50
90
51
180
0
CIRCLE
5
169
100
AcDbEntity
8
0
100
AcDbCircle
10
72.5
20
19.999999999999986
30
0
40
1.375
210
0
220
-0
230
1
0
CIRCLE
5
170
100
AcDbEntity
8
0
100
AcDbCircle
10
95.5
20
19.999999999999982
30
0
40
1.375
210
0
220
-0
230
1
0
ARC
5
171
100
AcDbEntity
8
0
100
AcDbCircle
10
28.812999999999999
20
24.800000000000004
30
0
40
0.49999999999999822
210
0
220
0
230
1
100
AcDbArc
50
-90
51
90
0
LINE
5
172
100
AcDbEntity
8
0
100
AcDbLine
10
99
20
19.499999999999979
30
0
11
99.000000000000028
21
78.499999999999972
31
0
0
CIRCLE
5
173
100
AcDbEntity
8
0
100
AcDbCircle
10
61.5
20
37.500000000000007
30
0
40
1.375
210
0
220
0
230
1
0
CIRCLE
5
174
100
AcDbEntity
8
0
100
AcDbCircle
10
72.500000000000014
20
77.999999999999986
30
0
40
1.375
210
0
220
-0
230
1
0
LWPOLYLINE
5
175
100
AcDbEntity
8
0
100
AcDbPolyline
90
4
70
1
43
0.0
10
45.331000000000003
20
87.5
10
45.331000000000003
20
85.5
42
-0.99999999999999989
10
44.331000000000003
20
85.5
10
44.331000000000003
20
87.5
42
-0.99999999999999989
0
LWPOLYLINE
5
176
100
AcDbEntity
8
0
100
AcDbPolyline
90
4
70
1
43
0.0
10
44.331000000000003
20
19.5
10
44.331000000000003
20
17.5
42
0.99999999999999989
10
45.331000000000003
20
17.5
10
45.331000000000003
20
19.5
42
0.99999999999999989
0
CIRCLE
5
177
100
AcDbEntity
8
0
100
AcDbCircle
10
48.33100000000001
20
94.800000000000011
30
0
40
0.75000000000000011
210
0
220
0
230
1
0
LINE
5
178
100
AcDbEntity
8
0
100
AcDbLine
10
96
20
16.499999999999982
30
0
11
72
21
16.499999999999989
31
0
0
ARC
5
179
100
AcDbEntity
8
0
100
AcDbCircle
10
72.000000000000014
20
78.5
30
0
40
2.9999999999999893
210
0
220
-0
230
1
100
AcDbArc
50
90
51
180
0
CIRCLE
5
180
100
AcDbEntity
8
0
100
AcDbCircle
10
31.312999999999999
20
94.800000000000011
30
0
40
0.75000000000000011
210
0
220
0
230
1
0
CIRCLE
5
181
100
AcDbEntity
8
0
100
AcDbCircle
10
31.312999999999999
20
26.800000000000001
30
0
40
0.75000000000000011
210
0
220
0
230
1
0
ARC
5
182
100
AcDbEntity
8
0
100
AcDbCircle
10
62
20
95
30
0
40
2.9999999999999982
210
0
220
0
230
1
100
AcDbArc
50
0
51
90
0
CIRCLE
5
183
100
AcDbEntity
8
0
100
AcDbCircle
10
61.5
20
71.5
30
0
40
1.375
210
0
220
0
230
1
0
ARC
5
184
100
AcDbEntity
8
0
100
AcDbCircle
10
28.812999999999999
20
24.800000000000004
30
0
40
0.49999999999999822
210
0
220
0
230
1
100
AcDbArc
50
-90
51
90
0
ARC
5
185
100
AcDbEntity
8
0
100
AcDbCircle
10
45.83100000000001
20
58.800000000000011
30
0
40
0.49999999999999822
210
0
220
0
230
1
100
AcDbArc
50
-90
51
90
0
CIRCLE
5
186
100
AcDbEntity
8
0
100
AcDbCircle
10
3.5000000000000004
20
37.500000000000007
30
0
40
1.375
210
0
220
0
230
1
0
CIRCLE
5
187
100
AcDbEntity
8
0
100
AcDbCircle
10
41.331000000000003
20
60.799999999999997
30
0
40
0.75000000000000011
210
0
220
0
230
1
0
ARC
5
188
100
AcDbEntity
8
0
100
AcDbCircle
10
28.812999999999999
20
92.800000000000011
30
0
40
0.50000000000000711
210
0
220
0
230
1
100
AcDbArc
50
-90
51
90
0
CIRCLE
5
189
100
AcDbEntity
8
0
100
AcDbCircle
10
31.312999999999999
20
60.799999999999997
30
0
40
0.75000000000000011
210
0
220
0
230
1
0
CIRCLE
5
190
100
AcDbEntity
8
0
100
AcDbCircle
10
31.312999999999999
20
26.800000000000001
30
0
40
0.75000000000000011
210
0
220
0
230
1
0
LINE
5
191
100
AcDbEntity
8
0
100
AcDbLine
10
0
20
37.000000000000007
30
0
11
0
21
61.000000000000007
31
0
0
ARC
5
192
100
AcDbEntity
8
0
100
AcDbCircle
10
3.0000000000000004
20
3.0000000000000004
30
0
40
3.0000000000000004
210
0
220
0
230
1
100
AcDbArc
50
180
51
270
0
CIRCLE
5
193
100
AcDbEntity
8
0
100
AcDbCircle
10
61.5
20
94.500000000000014
30
0
40
1.375
210
0
220
0
230
1
0
ARC
5
194
100
AcDbEntity
8
0
100
AcDbCircle
10
62
20
3.0000000000000004
30
0
40
3.0000000000000004
210
0
220
0
230
1
100
AcDbArc
50
-90
51
0
0
CIRCLE
5
195
100
AcDbEntity
8
0
100
AcDbCircle
10
3.5000000000000004
20
26.500000000000004
30
0
40
1.375
210
0
220
0
230
1
0
CIRCLE
5
196
100
AcDbEntity
8
0
100
AcDbCircle
10
61.5
20
3.5000000000000004
30
0
40
1.375
210
0
220
0
230
1
0
ARC
5
197
100
AcDbEntity
8
0
100
AcDbCircle
10
62
20
61.000000000000007
30
0
40
2.9999999999999982
210
0
220
0
230
1
100
AcDbArc
50
0
51
90
0
ARC
5
198
100
AcDbEntity
8
0
100
AcDbCircle
10
3.0000000000000004
20
61.000000000000007
30
0
40
2.9999999999999982
210
0
220
-0
230
1
100
AcDbArc
50
90
51
180
0
ARC
5
199
100
AcDbEntity
8
0
100
AcDbCircle
10
96
20
19.499999999999986
30
0
40
3.0000000000000027
210
0
220
0
230
1
100
AcDbArc
50
270
51
360
0
ARC
5
200
100
AcDbEntity
8
0
100
AcDbCircle
10
3.0000000000000004
20
37
30
0
40
3.0000000000000004
210
0
220
0
230
1
100
AcDbArc
50
180
51
270
0
ARC
5
201
100
AcDbEntity
8
0
100
AcDbCircle
10
62
20
27
30
0
40
2.9999999999999982
210
0
220
0
230
1
100
AcDbArc
50
0
51
90
0
ARC
5
202
100
AcDbEntity
8
0
100
AcDbCircle
10
45.83100000000001
20
24.800000000000004
30
0
40
0.49999999999999822
210
0
220
0
230
1
100
AcDbArc
50
-90
51
90
0
LINE
5
203
100
AcDbEntity
8
0
100
AcDbLine
10
30.5
20
67.000000000000014
30
0
11
30.500000000000004
21
65
31
0
0
LINE
5
204
100
AcDbEntity
8
0
100
AcDbLine
10
34.500000000000007
20
67.000000000000014
30
0
11
34.5
21
64.999999999999986
31
0
0
LINE
5
205
100
AcDbEntity
8
0
100
AcDbLine
10
30.668733915780528
20
32.999999999999993
30
0
11
30.668733915780528
21
31
31
0
0
LINE
5
206
100
AcDbEntity
8
0
100
AcDbLine
10
34.668733915780528
20
31
30
0
11
34.668733915780528
21
33
31
0
0
LINE
5
207
100
AcDbEntity
8
0
100
AcDbLine
10
66
20
51.000000000000007
30
0
11
68.000000000000014
21
51.000000000000007
31
0
0
LINE
5
208
100
AcDbEntity
8
0
100
AcDbLine
10
66
20
47
30
0
11
68
21
47
31
0
0
LINE
5
209
100
AcDbEntity
8
0
100
AcDbLine
10
69.000000000000028
20
78.5
30
0
11
69.000000000000014
21
52
31
0
0
LINE
5
210
100
AcDbEntity
8
0
100
AcDbLine
10
69.000000000000028
20
46.000000000000007
30
0
11
69
21
19.499999999999989
31
0
0
LINE
5
211
100
AcDbEntity
8
0
100
AcDbLine
10
65
20
61.000000000000007
30
0
11
65
21
52
31
0
0
LINE
5
212
100
AcDbEntity
8
0
100
AcDbLine
10
65
20
46.000000000000007
30
0
11
65
21
37
31
0
0
LINE
5
213
100
AcDbEntity
8
0
100
AcDbLine
10
3
20
68
30
0
11
29.499999999999996
21
68
31
0
0
LINE
5
214
100
AcDbEntity
8
0
100
AcDbLine
10
35.5
20
68
30
0
11
62
21
68
31
0
0
LINE
5
215
100
AcDbEntity
8
0
100
AcDbLine
10
3.0000000000000004
20
64
30
0
11
29.499999999999993
21
64
31
0
0
LINE
5
216
100
AcDbEntity
8
0
100
AcDbLine
10
35.5
20
64
30
0
11
62
21
64
31
0
0
LINE
5
217
100
AcDbEntity
8
0
100
AcDbLine
10
29.668733915780528
20
34
30
0
11
3
21
34
31
0
0
LINE
5
218
100
AcDbEntity
8
0
100
AcDbLine
10
35.668733915780528
20
34.000000000000007
30
0
11
62
21
34
31
0
0
LINE
5
219
100
AcDbEntity
8
0
100
AcDbLine
10
3.0000000000000004
20
30
30
0
11
29.668733915780521
21
29.999999999999996
31
0
0
LINE
5
220
100
AcDbEntity
8
0
100
AcDbLine
10
35.668733915780528
20
29.999999999999996
30
0
11
62
21
30
31
0
0
ARC
5
221
100
AcDbEntity
8
0
100
AcDbCircle
10
29.500000000000007
20
67.000000000000014
30
0
40
0.99999999999999201
210
0
220
0
230
1
100
AcDbArc
50
0
51
90.000000000000611
0
ARC
5
222
100
AcDbEntity
8
0
100
AcDbCircle
10
35.499999999999993
20
67.000000000000014
30
0
40
0.99999999999998757
210
0
220
-0
230
1
100
AcDbArc
50
89.999999999999588
51
180
0
ARC
5
223
100
AcDbEntity
8
0
100
AcDbCircle
10
35.499999999999993
20
64.999999999999986
30
0
40
0.99999999999999201
210
0
220
0
230
1
100
AcDbArc
50
180
51
270.0000000000004
0
ARC
5
224
100
AcDbEntity
8
0
100
AcDbCircle
10
29.500000000000007
20
65
30
0
40
0.99999999999999645
210
0
220
0
230
1
100
AcDbArc
50
-90.00000000000081
51
0
0
ARC
5
225
100
AcDbEntity
8
0
100
AcDbCircle
10
66
20
52
30
0
40
0.99999999999999645
210
0
220
0
230
1
100
AcDbArc
50
180
51
270
0
ARC
5
226
100
AcDbEntity
8
0
100
AcDbCircle
10
68.000000000000014
20
52
30
0
40
0.99999999999999645
210
0
220
0
230
1
100
AcDbArc
50
-90
51
0
0
ARC
5
227
100
AcDbEntity
8
0
100
AcDbCircle
10
68
20
45.999999999999986
30
0
40
1.0000000000000142
210
0
220
-0
230
1
100
AcDbArc
50
0
51
90
0
ARC
5
228
100
AcDbEntity
8
0
100
AcDbCircle
10
66
20
46.000000000000007
30
0
40
0.99999999999999645
210
0
220
-0
230
1
100
AcDbArc
50
90
51
180
0
ARC
5
229
100
AcDbEntity
8
0
100
AcDbCircle
10
35.668733915780535
20
33
30
0
40
1.0000000000000098
210
0
220
0
230
1
100
AcDbArc
50
90.000000000000398
51
180
0
ARC
5
230
100
AcDbEntity
8
0
100
AcDbCircle
10
29.668733915780518
20
32.999999999999993
30
0
40
1.0000000000000098
210
0
220
-0
230
1
100
AcDbArc
50
0
51
89.999999999999389
0
ARC
5
231
100
AcDbEntity
8
0
100
AcDbCircle
10
29.668733915780514
20
31.000000000000011
30
0
40
1.0000000000000142
210
-0
220
0
230
1
100
AcDbArc
50
270.0000000000004
51
360
0
ARC
5
232
100
AcDbEntity
8
0
100
AcDbCircle
10
35.668733915780535
20
31.000000000000007
30
0
40
1.0000000000000098
210
0
220
0
230
1
100
AcDbArc
50
180
51
269.9999999999996
0
ENDSEC
0
SECTION
2
OBJECTS
0
DICTIONARY
5
C
100
AcDbDictionary
3
ACAD_GROUP
350
D
3
ACAD_MLINESTYLE
350
17
0
DICTIONARY
5
D
100
AcDbDictionary
0
DICTIONARY
5
1A
330
C
100
AcDbDictionary
0
DICTIONARY
5
17
100
AcDbDictionary
0
ENDSEC
0
EOF
