0
SECTION
2
HEADER
9
$INSUNITS
70
4
9
$ACADVER
1
AC1014
9
$HANDSEED
5
FFFF
0
ENDSEC
0
SECTION
2
TABLES
0
TABLE
2
VPORT
5
8
100
AcDbSymbolTable
0
ENDTAB
0
TABLE
2
LTYPE
5
5
100
AcDbSymbolTable
0
LTYPE
5
14
100
AcDbSymbolTableRecord
100
AcDbLinetypeTableRecord
2
BYBLOCK
70
0
0
LTYPE
5
15
100
AcDbSymbolTableRecord
100
AcDbLinetypeTableRecord
2
BYLAYER
70
0
0
ENDTAB
0
TABLE
2
LAYER
5
2
100
AcDbSymbolTable
70
2
0
LAYER
5
50
100
AcDbSymbolTableRecord
100
AcDbLayerTableRecord
2
0
70
0
6
CONTINUOUS
0
ENDTAB
0
TABLE
2
STYLE
5
3
100
AcDbSymbolTable
70
1
0
STYLE
5
11
100
AcDbSymbolTableRecord
100
AcDbTextStyleTableRecord
2
STANDARD
70
0
0
ENDTAB
0
TABLE
2
VIEW
5
6
100
AcDbSymbolTable
70
0
0
ENDTAB
0
TABLE
2
UCS
5
7
100
AcDbSymbolTable
70
0
0
ENDTAB
0
TABLE
2
APPID
5
9
100
AcDbSymbolTable
70
2
0
APPID
5
12
100
AcDbSymbolTableRecord
100
AcDbRegAppTableRecord
2
ACAD
70
0
0
ENDTAB
0
TABLE
2
DIMSTYLE
5
A
100
AcDbSymbolTable
70
1
0
ENDTAB
0
TABLE
2
BLOCK_RECORD
5
1
100
AcDbSymbolTable
70
1
0
BLOCK_RECORD
5
1F
100
AcDbSymbolTableRecord
100
AcDbBlockTableRecord
2
*MODEL_SPACE
0
BLOCK_RECORD
5
1B
100
AcDbSymbolTableRecord
100
AcDbBlockTableRecord
2
*PAPER_SPACE
0
ENDTAB
0
ENDSEC
0
SECTION
2
BLOCKS
0
BLOCK
5
20
100
AcDbEntity
100
AcDbBlockBegin
2
*MODEL_SPACE
0
ENDBLK
5
21
100
AcDbEntity
100
AcDbBlockEnd
0
BLOCK
5
1C
100
AcDbEntity
100
AcDbBlockBegin
2
*PAPER_SPACE
0
ENDBLK
5
1D
100
AcDbEntity
100
AcDbBlockEnd
0
ENDSEC
0
SECTION
2
ENTITIES
0
LWPOLYLINE
5
100
100
AcDbEntity
8
0
100
AcDbPolyline
90
8
70
1
43
0.0
10
23.622
20
22.25
10
25.521999999999998
20
22.250000000000007
42
0.41421356237309509
10
25.822000000000003
20
22.550000000000004
10
25.821999999999999
20
25.449999999999999
42
0.41421356237309509
10
25.521999999999998
20
25.75
10
23.622
20
25.749999999999996
42
0.41421356237309509
10
23.321999999999999
20
25.449999999999999
10
23.322000000000003
20
22.550000000000004
42
0.41421356237309509
0
LWPOLYLINE
5
101
100
AcDbEntity
8
0
100
AcDbPolyline
90
8
70
1
43
0.0
10
28.372
20
24.250000000000004
10
30.272000000000002
20
24.250000000000004
42
0.41421356237309509
10
30.571999999999999
20
24.550000000000001
10
30.571999999999999
20
25.449999999999999
42
0.41421356237309509
10
30.272000000000002
20
25.75
10
28.372
20
25.749999999999996
42
0.41421356237309509
10
28.072000000000003
20
25.449999999999999
10
28.072000000000003
20
24.550000000000001
42
0.41421356237309509
0
LWPOLYLINE
5
102
100
AcDbEntity
8
0
100
AcDbPolyline
90
8
70
1
43
0.0
10
62
20
30
42
-0.41421356237309509
10
65
20
27
10
65
20
3.0000000000000004
42
-0.41421356237309509
10
62
20
0
10
3.0000000000000004
20
0
42
-0.41421356237309509
10
0
20
2.9999999999999982
10
2.2204460492503131e-15
20
27
42
-0.41421356237309509
10
2.9999999999999982
20
30
0
LWPOLYLINE
5
103
100
AcDbEntity
8
0
100
AcDbPolyline
90
8
70
1
43
0.0
10
42.072000000000003
20
25.449999999999999
42
-0.41421356237309509
10
42.372000000000007
20
25.749999999999996
10
44.271999999999998
20
25.75
42
-0.41421356237309509
10
44.572000000000003
20
25.449999999999999
10
44.572000000000003
20
24.550000000000001
42
-0.41421356237309509
10
44.271999999999998
20
24.250000000000004
10
42.372000000000007
20
24.25
42
-0.41421356237309509
10
42.072000000000003
20
24.550000000000001
0
CIRCLE
5
104
100
AcDbEntity
8
0
100
AcDbCircle
10
3.5000000000000004
20
26.500000000000004
30
0
40
1.375
210
0
220
0
230
1
0
CIRCLE
5
105
100
AcDbEntity
8
0
100
AcDbCircle
10
3.5000000000000004
20
3.5000000000000004
30
0
40
1.375
210
0
220
0
230
1
0
CIRCLE
5
106
100
AcDbEntity
8
0
100
AcDbCircle
10
61.5
20
26.500000000000004
30
0
40
1.375
210
0
220
0
230
1
0
LWPOLYLINE
5
107
100
AcDbEntity
8
0
100
AcDbPolyline
90
8
70
1
43
0.0
10
49.322000000000003
20
22.550000000000004
42
-0.41421356237309509
10
49.022000000000006
20
22.250000000000007
10
47.122
20
22.25
42
-0.41421356237309509
10
46.82200000000001
20
22.550000000000004
10
46.822000000000003
20
25.449999999999999
42
-0.41421356237309509
10
47.122
20
25.75
10
49.022000000000006
20
25.75
42
-0.41421356237309509
10
49.32200000000001
20
25.449999999999999
0
CIRCLE
5
108
100
AcDbEntity
8
0
100
AcDbCircle
10
61.5
20
3.5000000000000004
30
0
40
1.375
210
0
220
0
230
1
0
ENDSEC
0
SECTION
2
OBJECTS
0
DICTIONARY
5
C
100
AcDbDictionary
3
ACAD_GROUP
350
D
3
ACAD_MLINESTYLE
350
17
0
DICTIONARY
5
D
100
AcDbDictionary
0
DICTIONARY
5
1A
330
C
100
AcDbDictionary
0
DICTIONARY
5
17
100
AcDbDictionary
0
ENDSEC
0
EOF
